<?xml version="1.0" encoding="utf-8"?>
<!-- Generator: Adobe Illustrator 16.0.0, SVG Export Plug-In . SVG Version: 6.00 Build 0)  -->
<!DOCTYPE svg PUBLIC "-//W3C//DTD SVG 1.1//EN" "http://www.w3.org/Graphics/SVG/1.1/DTD/svg11.dtd">
<svg version="1.1" id="Layer_1" xmlns="http://www.w3.org/2000/svg" xmlns:xlink="http://www.w3.org/1999/xlink" x="0px" y="0px"
	 width="558px" height="255.5px" viewBox="-172.5 0 558 255.5" enable-background="new -172.5 0 558 255.5" xml:space="preserve">
<g id="Layer_1_1_">
</g>
<g id="Layer_2_1_">
</g>
<g id="atelier">
	<g>
		<g>
			<g id="Layer_3">
				<path fill="#EDE5D7" d="M165.968,66.001c-0.079-0.136-0.153-0.277-0.234-0.421c-0.663-0.058-1.478-0.278-2.047-0.438
					c-1.04-0.284-1.669-0.455-2.175-0.186l-0.657,0.346l0.486,0.999c4.113,7.828,3.443,16.078-1.709,21.021
					c-2.841,2.725-6.79,4.153-11.274,4.12c-0.371-28.597-23.809-51.741-52.561-51.741c-24.31,0-44.811,16.542-50.797,38.936
					c-2.517,0.273-4.656-0.222-6.352-1.502c-2.25-1.702-3.309-4.427-3.781-6.229c0.789-1.616,3.613-8.46-2.596-13.082
					c-2.789,4.373-3.227,6.851,0.918,12.95c0.453,1.979,1.616,5.407,4.474,7.568c1.686,1.275,3.71,1.921,6.029,1.921
					c0.302,0,0.607-0.019,0.917-0.037c-0.896,3.831-1.385,7.812-1.385,11.91c0,13.965,5.444,27.109,15.323,37.005l0.235,0.233
					h27.102l0.042-0.725c0.364-5.954,5.443-10.61,11.557-10.61c6.09,0,11.164,4.598,11.555,10.466
					c0.033,0.55,0.438,0.771,0.896,0.856l0.103,0.015c0.157,0.023,0.318,0.027,0.471,0.027c0.167,0,0.321-0.007,0.454-0.017
					l0.136-0.004v-0.007h13.463l1.434-0.159l-0.219-0.848c-2.442-9.463,3.489-18.771,13.5-21.186
					c2.126-0.514,4.294-0.662,6.452-0.432c1.396,0.14,3.201,0.305,4.747,0.305c13.195,0,23.935-12.39,23.935-27.611
					c0-5.595-1.152-13.344-4.382-18.318l-0.403-0.621l-0.919,0.502c-0.603,0.319-0.769,1.069-0.982,2.019
					c-0.129,0.591-0.294,1.318-0.57,1.849c0.071,0.132,0.145,0.267,0.216,0.396L165.968,66.001z"/>
			</g>
			<g id="Layer_2">
				<g>
					<g>
						<path fill="#453731" d="M109.167,99.445c-1.453,0.235-3.251,0.348-5.284,0.149c-2.015-0.205-4.334-0.691-6.431-1.975
							c-0.516-0.328-1.013-0.704-1.451-1.145c-0.417-0.435-0.853-1.002-1.315-1.504c-0.922-1.041-1.914-2.071-3.02-3.062
							c-2.208-1.947-4.846-3.792-7.973-4.864c-1.552-0.541-3.208-0.882-4.864-1.073c-1.64-0.224-3.365-0.201-4.719-0.657
							c-0.671-0.233-1.158-0.623-1.502-1.211c-0.35-0.587-0.549-1.338-0.68-2.114c-0.125-0.779-0.177-1.596-0.209-2.418
							c-0.015-0.402-0.025-0.84-0.013-1.224l0.034-1.265c0.169-3.248,1.007-6.511,2.371-9.44c1.352-2.944,3.228-5.596,5.43-7.774
							c2.193-2.192,4.663-3.967,7.21-5.252c2.542-1.304,5.134-2.162,7.588-2.653c2.461-0.48,4.76-0.662,6.818-0.608
							c2.034,0.047,3.819,0.299,5.261,0.602c1.444,0.296,2.563,0.618,3.316,0.858c0.753,0.257,1.154,0.392,1.154,0.392
							s-0.391-0.165-1.124-0.468c-0.745-0.282-1.839-0.701-3.28-1.067c-1.444-0.374-3.223-0.719-5.313-0.872
							c-2.066-0.143-4.447-0.108-6.991,0.312c-1.272,0.213-2.589,0.499-3.917,0.917c-1.333,0.401-2.686,0.916-4.02,1.569
							c-2.678,1.272-5.318,3.042-7.658,5.299c-2.347,2.252-4.369,5.008-5.848,8.103c-1.47,3.104-2.365,6.51-2.57,10.033
							l-0.043,1.273c-0.014,0.466-0.005,0.873,0.007,1.316c0.023,0.868,0.092,1.743,0.238,2.63c0.157,0.879,0.383,1.79,0.896,2.652
							c0.493,0.87,1.407,1.573,2.323,1.862c0.917,0.31,1.79,0.398,2.63,0.48c0.821,0.063,1.633,0.135,2.445,0.199
							c1.589,0.15,3.123,0.437,4.583,0.914c2.92,0.943,5.5,2.56,7.695,4.388c1.102,0.909,2.128,1.868,3.069,2.836
							c0.477,0.502,0.946,0.995,1.407,1.479c0.507,0.482,1.066,0.875,1.638,1.204c2.316,1.289,4.716,1.665,6.788,1.797
							c2.084,0.118,3.902-0.071,5.366-0.37c1.46-0.303,2.562-0.723,3.278-1.071c0.718-0.343,1.066-0.591,1.066-0.591
							s-0.363,0.229-1.093,0.528C111.732,98.871,110.621,99.22,109.167,99.445z"/>
						<circle fill="#453731" stroke="#C1B49A" stroke-miterlimit="10" cx="127.889" cy="75.834" r="2.846"/>
						<path fill="#453731" d="M88.818,60.221c-0.712,0.521-1.441,1.079-2.13,1.706c-0.692,0.626-1.368,1.293-2.003,2.002
							c-0.623,0.719-1.215,1.465-1.739,2.245c-0.543,0.767-0.977,1.589-1.383,2.382c-0.4,0.801-0.706,1.609-0.962,2.388
							c-0.247,0.78-0.436,1.531-0.549,2.229c-0.156,0.696-0.173,1.349-0.231,1.919c-0.015,0.572-0.03,1.071-0.01,1.479
							c0.055,0.819,0.101,1.28,0.101,1.28s0.089-0.464,0.215-1.257c0.067-0.396,0.193-0.873,0.295-1.416
							c0.161-0.533,0.285-1.146,0.514-1.785c0.202-0.645,0.479-1.32,0.772-2.032c0.313-0.704,0.685-1.423,1.091-2.153
							c0.416-0.726,0.894-1.441,1.405-2.155c0.501-0.72,1.075-1.407,1.668-2.073c0.585-0.677,1.209-1.322,1.852-1.927
							c0.651-0.601,1.288-1.196,1.947-1.73c0.655-0.536,1.296-1.05,1.924-1.509c0.631-0.461,1.234-0.889,1.8-1.279
							c2.271-1.527,3.912-2.421,3.912-2.421s-1.838,0.399-4.366,1.636C91.684,58.367,90.246,59.177,88.818,60.221z"/>
						<path fill="#453731" d="M58.75,122.088c-0.229-0.433-0.501-0.877-0.731-1.376c-0.229-0.496-0.472-1.021-0.722-1.566
							c-0.495-1.095-1.075-2.259-1.627-3.513c-0.495-1.282-1.009-2.633-1.569-4.016c-0.522-1.4-0.908-2.896-1.417-4.379
							c-0.456-1.497-0.757-3.058-1.15-4.599c-0.167-0.771-0.276-1.562-0.419-2.338c-0.116-0.779-0.302-1.553-0.363-2.331
							c-0.123-1.554-0.384-3.078-0.377-4.57c-0.025-0.743-0.05-1.478-0.074-2.193c0.018-0.716,0.032-1.418,0.047-2.101
							c-0.006-0.685,0.07-1.346,0.117-1.986c0.058-0.641,0.076-1.269,0.161-1.856c0.165-1.184,0.292-2.279,0.493-3.232
							c0.161-0.963,0.38-1.786,0.532-2.474c0.192-0.672,0.321-1.215,0.446-1.569c0.109-0.361,0.182-0.552,0.182-0.552
							s-0.394,0.706-0.928,2.023c-0.234,0.669-0.567,1.471-0.821,2.428c-0.302,0.946-0.549,2.038-0.8,3.234
							c-0.136,0.598-0.204,1.229-0.313,1.879c-0.103,0.653-0.208,1.329-0.248,2.026c-0.054,0.702-0.11,1.422-0.169,2.155
							c-0.038,0.734-0.012,1.49-0.02,2.253c-0.045,1.536,0.128,3.111,0.25,4.714c0.052,0.807,0.234,1.598,0.347,2.406
							c0.137,0.797,0.238,1.614,0.403,2.412c0.198,0.791,0.398,1.584,0.596,2.372c0.217,0.783,0.354,1.587,0.639,2.339
							c0.252,0.763,0.51,1.518,0.772,2.257c0.275,0.737,0.48,1.49,0.803,2.181c0.608,1.398,1.224,2.741,1.801,4.012
							c0.624,1.25,1.304,2.381,1.896,3.446c0.301,0.528,0.585,1.034,0.86,1.517c0.279,0.477,0.604,0.896,0.872,1.306
							c0.565,0.811,1.056,1.514,1.46,2.101c0.824,1.148,1.296,1.799,1.296,1.799s-0.374-0.713-1.026-1.97
							C59.617,123.704,59.213,122.95,58.75,122.088z"/>
						<g>
							<path fill="none" d="M168.634,31.612c-2.205,0.759-4.617,1.726-5.373,2.498c-0.323,0.332-0.198,0.752-0.128,0.919
								c0.199,0.473,0.655,0.786,1.097,0.704c1.01-0.19,3.062-1.837,4.829-3.416C168.891,32.095,168.748,31.863,168.634,31.612z"/>
							<path fill="none" d="M171.912,26.577c0.128,0,0.254,0.025,0.381,0.039c0.445-2.294,0.82-4.875,0.529-5.918
								c-0.118-0.43-0.537-0.583-0.889-0.583c-0.392,0-0.854,0.188-1,0.608c-0.346,0.968,0.056,3.575,0.543,5.895
								C171.621,26.603,171.762,26.577,171.912,26.577z"/>
							<path fill="none" d="M166.395,37.904c-0.063,0.235-0.014,0.458,0.142,0.666c0.212,0.27,0.593,0.453,0.947,0.453
								c0.15,0,0.369-0.037,0.558-0.198c0.781-0.667,1.734-3.11,2.472-5.359c-0.255-0.11-0.489-0.254-0.711-0.414
								C168.271,34.812,166.664,36.858,166.395,37.904z"/>
							<path fill="none" d="M168.327,30.163c0-0.13,0.024-0.252,0.037-0.379c-1.66-0.325-3.562-0.63-4.881-0.63
								c-0.442,0-0.791,0.033-1.034,0.1c-0.519,0.145-0.576,0.684-0.582,0.844c-0.016,0.396,0.171,0.891,0.608,1.044
								c0.234,0.082,0.59,0.125,1.061,0.125c1.302,0,3.187-0.325,4.834-0.672C168.352,30.453,168.327,30.312,168.327,30.163z"/>
							<path fill="none" d="M163.585,66.234c3.841,8.371,2.903,17.103-2.512,22.471c-3.312,3.287-7.991,4.96-13.196,4.689
								l-0.751-0.041v-0.756c0-29.005-22.814-52.557-50.855-52.557c-28.042,0-50.856,23.555-50.856,52.508
								c0,13.886,5.186,26.948,14.608,36.832h24.882c0.765-6.615,6.357-11.7,13.051-11.7c6.711,0,12.334,5.095,13.056,11.7h13.417
								c-2.059-10.299,4.301-20.222,14.831-22.852c2.309-0.576,4.655-0.736,6.994-0.483c1.352,0.139,3.1,0.303,4.566,0.303
								c12.289,0,22.287-12.065,22.287-26.896c0-4.893-0.923-12.014-3.461-16.894c-0.021,0.1-0.043,0.199-0.065,0.289
								c-0.275,1.279-0.614,2.873-1.854,3.581C166.591,67.078,164.929,66.617,163.585,66.234z"/>
							<path fill="none" d="M169.025,28.055c-1.764-1.531-3.805-3.14-4.854-3.412c-0.063-0.017-0.129-0.025-0.193-0.025
								c-0.393,0-0.675,0.315-0.809,0.608c-0.142,0.306-0.195,0.745,0.081,1.067c0.666,0.776,3.111,1.731,5.359,2.468
								C168.719,28.508,168.864,28.274,169.025,28.055z"/>
							<path fill="none" d="M170.462,26.888c-0.759-2.205-1.725-4.618-2.496-5.374c-0.145-0.141-0.32-0.213-0.524-0.213
								c-0.312,0-0.654,0.172-0.878,0.44c-0.108,0.132-0.285,0.402-0.221,0.737c0.188,1.009,1.836,3.063,3.416,4.829
								C169.979,27.145,170.209,27,170.462,26.888z"/>
							<path fill="none" d="M181.352,29.184c-0.238-0.083-0.597-0.125-1.067-0.125c-1.302,0-3.186,0.324-4.831,0.668
								c0.016,0.145,0.045,0.286,0.045,0.436c0,0.128-0.029,0.25-0.039,0.38c1.659,0.323,3.562,0.63,4.883,0.63
								c0.44,0,0.789-0.035,1.033-0.104c0.519-0.143,0.575-0.681,0.581-0.839C181.966,29.835,181.785,29.338,181.352,29.184z"/>
							<path fill="none" d="M174.801,32.271c1.762,1.531,3.805,3.14,4.85,3.41c0.465,0.119,0.845-0.241,1.004-0.583
								c0.141-0.306,0.195-0.747-0.076-1.064c-0.67-0.782-3.113-1.734-5.363-2.471C175.107,31.819,174.961,32.049,174.801,32.271z"
								/>
							<path fill="none" d="M171.912,33.749c-0.129,0-0.254-0.024-0.379-0.037c-0.447,2.292-0.82,4.874-0.526,5.914
								c0.117,0.431,0.534,0.583,0.884,0.583c0.392,0,0.854-0.187,1.002-0.605c0.344-0.968-0.057-3.575-0.543-5.893
								C172.204,33.723,172.062,33.749,171.912,33.749z"/>
							<path fill="none" d="M173.361,33.44c0.756,2.206,1.725,4.614,2.494,5.369c0.365,0.36,1.037,0.22,1.404-0.224
								c0.107-0.132,0.283-0.402,0.221-0.741c-0.188-1.01-1.836-3.061-3.416-4.827C173.844,33.18,173.612,33.326,173.361,33.44z"/>
							<path fill="none" d="M175.187,28.713c2.205-0.757,4.621-1.727,5.374-2.495c0.329-0.329,0.204-0.751,0.132-0.917
								c-0.174-0.422-0.569-0.718-0.953-0.718c-0.051,0-0.098,0.003-0.146,0.012c-1.008,0.189-3.064,1.838-4.83,3.417
								C174.93,28.229,175.074,28.462,175.187,28.713z"/>
							<path fill="none" d="M177.432,22.422c0.06-0.237,0.011-0.459-0.149-0.664c-0.206-0.273-0.588-0.455-0.943-0.455
								c-0.151,0-0.369,0.035-0.558,0.193c-0.779,0.667-1.732,3.114-2.47,5.36c0.252,0.11,0.489,0.255,0.707,0.417
								C175.551,25.514,177.158,23.469,177.432,22.422z"/>
							<path fill="#453731" d="M181.611,28.434c-0.323-0.114-0.758-0.169-1.327-0.169c-0.614,0-1.343,0.069-2.104,0.171
								c1.285-0.539,2.419-1.123,2.948-1.661c0.455-0.465,0.568-1.134,0.299-1.778c-0.345-0.82-1.161-1.333-1.98-1.179
								c-0.734,0.138-1.831,0.837-2.967,1.715c0.844-1.11,1.53-2.177,1.719-2.909c0.122-0.472,0.024-0.951-0.287-1.347
								c-0.61-0.789-1.915-1.002-2.646-0.377c-0.571,0.49-1.171,1.643-1.713,2.968c0.172-1.383,0.235-2.649,0.034-3.378
								c-0.194-0.706-0.846-1.163-1.651-1.163c-0.808,0-1.513,0.457-1.755,1.137c-0.247,0.712-0.186,2.009,0.003,3.434
								c-0.543-1.289-1.122-2.42-1.66-2.947c-0.68-0.671-1.911-0.505-2.571,0.289c-0.343,0.411-0.48,0.905-0.389,1.39
								c0.138,0.74,0.838,1.832,1.716,2.971c-1.114-0.846-2.178-1.534-2.91-1.721c-0.769-0.2-1.558,0.226-1.924,1.021
								c-0.309,0.675-0.232,1.407,0.2,1.914c0.487,0.57,1.638,1.167,2.958,1.708c-0.769-0.096-1.499-0.16-2.12-0.16
								c-0.521,0-0.929,0.042-1.246,0.134c-0.69,0.191-1.135,0.798-1.161,1.581c-0.034,0.839,0.43,1.572,1.137,1.82
								c0.323,0.116,0.759,0.171,1.326,0.171c0.612,0,1.34-0.069,2.108-0.174c-1.292,0.54-2.422,1.123-2.95,1.663
								c-0.458,0.467-0.57,1.132-0.298,1.78c0.265,0.632,0.819,1.081,1.425,1.181c-0.505,0.537-0.976,1.114-1.369,1.772
								c-4.426,7.46,0.287,20.572,3.585,26.865c-0.662-0.06-1.479-0.29-2.046-0.45c-1.035-0.293-1.663-0.47-2.166-0.194
								l-0.655,0.359l0.483,1.03c4.107,8.073,3.437,16.586-1.706,21.684c-2.831,2.812-6.77,4.287-11.239,4.251
								c-0.377-29.503-23.754-53.378-52.44-53.378c-24.25,0-44.702,17.065-50.675,40.167c-2.51,0.281-4.645-0.234-6.335-1.552
								c-2.247-1.753-3.3-4.567-3.775-6.428c0.787-1.665,3.605-8.727-2.589-13.494c-2.779,4.512-3.219,7.069,0.917,13.359
								c0.451,2.045,1.611,5.577,4.458,7.809c1.686,1.317,3.704,1.982,6.017,1.982c0.302,0,0.607-0.02,0.916-0.034
								c-0.895,3.948-1.38,8.058-1.38,12.285c0,14.409,5.427,27.97,15.286,38.176l0.234,0.245h27.034l0.044-0.751
								c0.363-6.141,5.427-10.949,11.531-10.949c6.074,0,11.136,4.743,11.522,10.799c0.037,0.569,0.438,0.797,0.897,0.887
								l0.104,0.016c0.156,0.021,0.313,0.026,0.467,0.026c0.164,0,0.319-0.006,0.453-0.016l0.138-0.008v-0.004h13.43l1.429-0.167
								l-0.218-0.872c-2.438-9.769,3.481-19.368,13.467-21.862c2.12-0.529,4.286-0.677,6.438-0.441
								c1.396,0.145,3.194,0.31,4.735,0.31c13.167,0,23.878-12.778,23.878-28.484c0-5.771-1.148-13.766-4.368-18.896l-0.399-0.642
								l-0.923,0.52c-0.601,0.331-0.769,1.102-0.976,2.081c-0.132,0.607-0.3,1.362-0.575,1.907
								c-3.602-6.855-7.42-18.94-3.632-25.326c0.59-0.986,1.357-1.796,2.274-2.458c-0.227,0.398-0.395,0.762-0.474,1.067
								c-0.119,0.473-0.019,0.95,0.29,1.349c0.362,0.466,0.966,0.762,1.568,0.762c0.413,0,0.783-0.134,1.081-0.386
								c0.567-0.492,1.169-1.641,1.712-2.97c-0.175,1.385-0.237,2.652-0.037,3.377c0.201,0.707,0.85,1.164,1.654,1.164
								s1.511-0.457,1.753-1.136c0.247-0.71,0.189-2.004,0-3.426c0.54,1.283,1.117,2.413,1.656,2.939
								c0.294,0.29,0.672,0.443,1.08,0.443c0.546,0,1.115-0.279,1.489-0.729c0.342-0.413,0.479-0.907,0.39-1.39
								c-0.141-0.74-0.837-1.835-1.717-2.973c1.112,0.843,2.179,1.532,2.911,1.721c0.128,0.033,0.261,0.053,0.392,0.053
								c0.641,0,1.228-0.411,1.533-1.073c0.306-0.671,0.233-1.408-0.199-1.912c-0.492-0.573-1.641-1.166-2.965-1.711
								c0.772,0.1,1.507,0.163,2.124,0.163c0.522,0,0.932-0.044,1.245-0.13c0.694-0.189,1.139-0.796,1.164-1.579
								C182.776,29.416,182.322,28.685,181.611,28.434z M169.581,62.85c0.019-0.089,0.04-0.19,0.065-0.29
								c2.538,4.88,3.459,12.001,3.459,16.894c0,14.83-9.997,26.896-22.288,26.896c-1.468,0-3.215-0.163-4.569-0.301
								c-2.336-0.254-4.685-0.096-6.991,0.481c-10.533,2.632-16.893,12.552-14.832,22.851h-13.416
								c-0.722-6.603-6.346-11.697-13.057-11.697c-6.695,0-12.289,5.082-13.053,11.697H60.022
								c-9.423-9.881-14.608-22.946-14.608-36.828c0-28.957,22.815-52.508,50.856-52.508c28.041,0,50.855,23.551,50.855,52.557
								v0.753l0.751,0.043c5.205,0.27,9.884-1.402,13.196-4.689c5.415-5.371,6.353-14.101,2.512-22.471
								c1.344,0.38,3.009,0.841,4.141,0.195C168.964,65.722,169.306,64.13,169.581,62.85z M166.344,22.48
								c-0.062-0.336,0.111-0.605,0.223-0.737c0.223-0.27,0.565-0.442,0.878-0.442c0.201,0,0.377,0.072,0.524,0.217
								c0.769,0.752,1.734,3.168,2.496,5.372c-0.251,0.111-0.485,0.255-0.705,0.422C168.182,25.545,166.532,23.489,166.344,22.48z
								 M163.249,26.294c-0.272-0.32-0.221-0.762-0.08-1.066c0.134-0.295,0.416-0.609,0.808-0.609c0.064,0,0.131,0.009,0.193,0.025
								c1.048,0.27,3.092,1.879,4.853,3.412c-0.159,0.221-0.304,0.453-0.416,0.707C166.362,28.026,163.916,27.072,163.249,26.294z
								 M163.539,31.269c-0.473,0-0.829-0.042-1.063-0.124c-0.435-0.154-0.622-0.649-0.608-1.045
								c0.006-0.163,0.066-0.699,0.584-0.844c0.241-0.067,0.59-0.1,1.032-0.1c1.322,0,3.228,0.304,4.881,0.63
								c-0.013,0.127-0.036,0.251-0.036,0.379c0,0.148,0.026,0.291,0.042,0.435C166.723,30.943,164.838,31.269,163.539,31.269z
								 M164.227,35.73c-0.438,0.082-0.896-0.232-1.096-0.705c-0.068-0.165-0.193-0.584,0.128-0.919
								c0.758-0.769,3.17-1.738,5.375-2.494c0.113,0.251,0.256,0.483,0.423,0.701C167.291,33.896,165.236,35.541,164.227,35.73z
								 M168.038,38.825c-0.186,0.162-0.404,0.198-0.558,0.198c-0.354,0-0.733-0.184-0.945-0.453
								c-0.155-0.205-0.205-0.431-0.143-0.666c0.27-1.046,1.877-3.093,3.408-4.853c0.221,0.16,0.454,0.304,0.709,0.414
								C169.772,35.715,168.822,38.159,168.038,38.825z M170.934,20.723c0.146-0.417,0.608-0.605,1-0.605
								c0.352,0,0.77,0.153,0.889,0.584c0.291,1.042-0.084,3.62-0.529,5.917c-0.127-0.016-0.25-0.04-0.381-0.04
								c-0.15,0-0.291,0.027-0.435,0.042C170.989,24.3,170.588,21.695,170.934,20.723z M172.891,39.601
								c-0.147,0.42-0.606,0.606-1,0.606c-0.352,0-0.767-0.153-0.885-0.583c-0.293-1.041,0.078-3.62,0.526-5.912
								c0.126,0.013,0.251,0.037,0.38,0.037c0.15,0,0.292-0.027,0.434-0.041C172.834,36.029,173.235,38.631,172.891,39.601z
								 M179.594,24.594c0.048-0.009,0.095-0.012,0.146-0.012c0.382,0,0.777,0.296,0.953,0.717c0.068,0.168,0.197,0.59-0.132,0.917
								c-0.753,0.77-3.169,1.738-5.374,2.495c-0.112-0.254-0.257-0.483-0.423-0.701C176.529,26.433,178.586,24.786,179.594,24.594z
								 M175.783,21.498c0.187-0.158,0.404-0.191,0.559-0.191c0.354,0,0.734,0.181,0.943,0.454c0.158,0.202,0.207,0.428,0.148,0.662
								c-0.273,1.046-1.881,3.089-3.412,4.851c-0.221-0.16-0.455-0.304-0.707-0.414C174.052,24.612,175.002,22.167,175.783,21.498z
								 M177.477,37.845c0.062,0.335-0.109,0.609-0.22,0.741c-0.37,0.443-1.037,0.583-1.404,0.224
								c-0.77-0.755-1.735-3.167-2.493-5.369c0.252-0.112,0.482-0.26,0.698-0.423C175.645,34.784,177.292,36.835,177.477,37.845z
								 M180.578,34.033c0.271,0.317,0.217,0.76,0.076,1.064c-0.159,0.342-0.536,0.703-1.004,0.584
								c-1.045-0.271-3.088-1.878-4.85-3.41c0.162-0.22,0.304-0.453,0.414-0.707C177.465,32.304,179.908,33.252,180.578,34.033z
								 M181.376,31.072c-0.245,0.065-0.593,0.102-1.038,0.102c-1.317,0-3.222-0.307-4.882-0.632
								c0.016-0.126,0.043-0.247,0.043-0.378c0-0.149-0.03-0.29-0.046-0.436c1.643-0.345,3.528-0.668,4.831-0.668
								c0.468,0,0.828,0.041,1.063,0.125c0.437,0.155,0.621,0.649,0.608,1.044C181.95,30.39,181.891,30.928,181.376,31.072z"/>
						</g>
					</g>
					<rect x="41.975" y="146.359" fill="#453731" width="129.558" height="0.814"/>
				</g>
			</g>
		</g>
		<g>
			<polygon fill="#453731" points="233.439,111.825 227.581,111.825 222.694,117.434 226.093,117.434 			"/>
			<polygon fill="#453731" points="298.84,111.825 292.986,111.825 288.092,117.434 291.492,117.434 			"/>
			<g>
				<path fill="#453731" d="M200.209,119.736c1.676-1.651,2.526-3.439,2.526-5.337c0-2.127-0.769-3.967-2.276-5.466
					c-1.51-1.505-3.353-2.27-5.479-2.27h-7.418v39.837h8.054l0.536-0.024v-0.021c3.25-0.168,6.1-1.496,8.47-3.946
					c2.675-2.773,4.027-6.105,4.027-9.897c0-3.811-1.353-7.111-4.012-9.784C203.244,121.301,201.763,120.263,200.209,119.736z
					 M190.818,109.923h4.161c1.321,0,2.395,0.416,3.287,1.264c0.887,0.85,1.312,1.898,1.312,3.21c0,1.305-0.426,2.334-1.304,3.141
					c-0.772,0.714-1.679,1.106-2.761,1.214h-4.696V109.923z M202.201,140.115c-1.773,1.839-3.886,2.892-6.295,3.129h-5.088v-21.087
					h3.99c2.877,0,5.36,1.03,7.396,3.064c2.037,2.033,3.069,4.52,3.069,7.394C205.275,135.486,204.238,138.009,202.201,140.115z"/>
				<path fill="#453731" d="M235.89,139.902c-0.214,0.261-0.461,0.521-0.74,0.807c-2.032,2.033-4.521,3.064-7.397,3.064
					c-2.482,0-4.677-0.773-6.524-2.299l15.096-15.095l2-1.996l-0.327-0.382c-0.135-0.16-0.283-0.309-0.438-0.465
					c-0.404-0.409-0.797-0.768-1.207-1.11c-2.442-1.954-5.333-2.948-8.599-2.948c-3.796,0-7.086,1.367-9.778,4.056
					c-2.691,2.696-4.059,5.986-4.059,9.778c0,3.813,1.367,7.114,4.059,9.803c2.689,2.691,5.982,4.055,9.778,4.055
					c3.818,0,7.119-1.365,9.803-4.055c0.556-0.549,1.056-1.136,1.483-1.738l0.419-0.58l-3.327-1.19L235.89,139.902z
					 M217.319,133.315c0-2.877,1.028-5.359,3.059-7.375c2.036-2.033,4.518-3.056,7.372-3.056c2.158,0,4.094,0.57,5.763,1.707
					l-14.49,14.482C217.894,137.404,217.319,135.474,217.319,133.315z"/>
				<path fill="#453731" d="M259.364,119.481c-3.799,0-7.086,1.364-9.779,4.056c-0.162,0.156-0.315,0.321-0.466,0.486v-17.361
					h-3.253V146.5h3.253v-3.864c0.15,0.162,0.304,0.327,0.466,0.482c2.693,2.693,5.98,4.056,9.782,4.056
					c3.814,0,7.111-1.364,9.791-4.056c2.682-2.694,4.043-5.98,4.043-9.778c0-3.808-1.361-7.105-4.043-9.8
					C266.473,120.844,263.177,119.481,259.364,119.481z M266.758,140.725c-2.061,2.052-4.477,3.049-7.395,3.049
					c-2.877,0-5.363-1.033-7.399-3.064c-1.48-1.48-2.44-3.209-2.845-5.148v-4.446c0.407-1.947,1.364-3.69,2.845-5.174
					c2.037-2.033,4.522-3.063,7.399-3.063c2.869,0,5.358,1.03,7.395,3.063c2.034,2.031,3.064,4.52,3.064,7.396
					C269.822,136.211,268.792,138.701,266.758,140.725z"/>
				<path fill="#453731" d="M301.531,139.609l-0.242,0.296c-0.21,0.251-0.447,0.516-0.743,0.804
					c-2.026,2.037-4.516,3.064-7.392,3.064c-2.482,0-4.674-0.768-6.527-2.294l15.093-15.1l2.001-1.992l-0.326-0.381
					c-0.134-0.158-0.28-0.31-0.437-0.465c-0.384-0.388-0.791-0.76-1.211-1.112c-2.438-1.956-5.327-2.945-8.595-2.945
					c-3.799,0-7.094,1.362-9.779,4.055c-2.693,2.692-4.058,5.981-4.058,9.777c0,3.815,1.366,7.114,4.058,9.805
					c2.685,2.691,5.98,4.055,9.779,4.055c3.814,0,7.115-1.364,9.803-4.055c0.55-0.549,1.046-1.13,1.482-1.736l0.419-0.588
					L301.531,139.609z M282.719,133.315c0-2.872,1.028-5.354,3.066-7.375c2.031-2.033,4.512-3.056,7.369-3.056
					c2.153,0,4.09,0.57,5.761,1.707l-14.486,14.482C283.293,137.404,282.719,135.468,282.719,133.315z"/>
			</g>
			<path fill="#453731" d="M323.378,134.1c-0.911-0.912-2.395-1.925-4.509-3.083c-1.268-0.798-2.1-1.391-2.472-1.768
				c-0.597-0.593-0.887-1.284-0.887-2.109c0-0.844,0.29-1.539,0.887-2.123c0.588-0.593,1.283-0.878,2.11-0.878
				c0.848,0,1.503,0.249,2.007,0.76c0.521,0.531,0.854,1.356,0.997,2.452l0.088,0.685l2.875-1.138v-0.485
				c0-1.435-0.559-2.729-1.659-3.851c-1.136-1.132-2.585-1.704-4.308-1.704c-1.709,0-3.189,0.622-4.398,1.846
				c-1.211,1.219-1.828,2.711-1.828,4.438c0,1.703,0.617,3.181,1.828,4.397c0.754,0.75,2.045,1.62,3.963,2.647
				c1.515,0.974,2.529,1.71,3.009,2.196c0.86,0.858,1.272,1.861,1.272,3.056c0,1.236-0.416,2.253-1.279,3.11
				c-0.866,0.857-1.87,1.272-3.074,1.272c-1.205,0-2.208-0.415-3.07-1.272c-0.866-0.854-1.284-1.899-1.284-3.179v-0.697
				l-3.229,0.835v0.416c0,1.786,0.737,3.442,2.209,4.923c1.48,1.483,3.281,2.231,5.375,2.231c2.092,0,3.896-0.748,5.371-2.231
				c1.475-1.483,2.224-3.3,2.224-5.405C325.597,137.386,324.852,135.587,323.378,134.1z"/>
		</g>
		<g>
			<polygon fill="#453731" points="-72.02,111.511 -75.276,111.511 -75.276,121.636 -80.12,121.636 -80.12,124.898 -75.276,124.898 
				-75.276,146.501 -72.02,146.501 -72.02,124.898 -67.173,124.898 -67.173,121.636 -72.02,121.636 			"/>
			<rect x="-33.923" y="106.667" fill="#453731" width="3.254" height="39.834"/>
			<path fill="#453731" d="M-22.365,113.204c-0.741,0-1.383,0.267-1.918,0.79c-0.526,0.525-0.798,1.168-0.798,1.91
				c0,0.76,0.272,1.416,0.803,1.936c0.53,0.518,1.172,0.785,1.913,0.785c0.743,0,1.384-0.268,1.913-0.785
				c0.536-0.52,0.808-1.176,0.808-1.936c0-0.742-0.271-1.385-0.808-1.916C-20.984,113.471-21.626,113.204-22.365,113.204z"/>
			<rect x="-23.998" y="121.636" fill="#453731" width="3.257" height="24.864"/>
			<path fill="#453731" d="M18.366,124.269c-0.23,0.226-0.448,0.456-0.659,0.699v-3.332h-3.256v24.865h3.256v-12.803
				c0.074-2.719,1.104-5.082,3.066-7.021c1.362-1.367,2.671-2.087,3.903-2.148l0.51-0.028v-3.446l-0.565,0.027
				C22.482,121.189,20.372,122.258,18.366,124.269z"/>
			<g>
				<path fill="#453731" d="M-112.595,146.501h3.471l5.403-14.846h12.665l5.402,14.846h3.447l-15.182-41.763L-112.595,146.501z
					 M-102.532,128.396l5.143-14.139l5.144,14.139H-102.532z"/>
				<path fill="#453731" d="M-41.917,139.905c-0.21,0.255-0.453,0.516-0.743,0.807c-2.033,2.031-4.52,3.068-7.394,3.068
					c-2.487,0-4.682-0.773-6.527-2.304l15.098-15.094l1.997-1.993l-0.327-0.38c-0.135-0.165-0.284-0.312-0.438-0.47
					c-0.388-0.391-0.79-0.759-1.203-1.11c-2.444-1.957-5.338-2.945-8.6-2.945c-3.802,0-7.091,1.362-9.784,4.053
					c-2.692,2.693-4.056,5.986-4.056,9.778c0,3.817,1.365,7.118,4.056,9.803c2.691,2.691,5.981,4.055,9.784,4.055
					c3.813,0,7.114-1.364,9.8-4.055c0.548-0.543,1.045-1.124,1.487-1.734l0.422-0.579l-3.333-1.19L-41.917,139.905z
					 M-60.487,133.319c0-2.871,1.024-5.355,3.062-7.378c2.032-2.027,4.513-3.053,7.371-3.053c2.159,0,4.095,0.573,5.762,1.706
					l-14.488,14.484C-59.914,137.409-60.487,135.474-60.487,133.319z"/>
				<path fill="#453731" d="M6.456,139.905c-0.217,0.261-0.458,0.525-0.737,0.807c-2.035,2.031-4.523,3.068-7.395,3.068
					c-2.486,0-4.682-0.776-6.53-2.304l15.099-15.094l2.003-1.999l-0.328-0.379c-0.139-0.16-0.287-0.308-0.438-0.468
					c-0.415-0.41-0.811-0.771-1.208-1.107c-2.443-1.957-5.337-2.945-8.598-2.945c-3.801,0-7.093,1.362-9.784,4.053
					c-2.692,2.694-4.057,5.986-4.057,9.778c0,3.816,1.366,7.115,4.057,9.803c2.688,2.691,5.983,4.055,9.784,4.055
					c3.818,0,7.115-1.364,9.804-4.055c0.551-0.549,1.051-1.136,1.485-1.734l0.418-0.579l-3.335-1.19L6.456,139.905z
					 M-12.115,133.319c0-2.876,1.029-5.36,3.062-7.378c2.033-2.027,4.515-3.053,7.373-3.053c2.159,0,4.094,0.573,5.766,1.706
					l-14.493,14.484C-11.538,137.409-12.115,135.471-12.115,133.319z"/>
			</g>
		</g>
	</g>
</g>
<g>
	<path fill="#E89EA7" d="M44.406,210.403c-1.482,0-2.862-0.24-4.138-0.721c-1.276-0.479-2.382-1.159-3.315-2.038
		c-0.934-0.878-1.667-1.956-2.203-3.232c-0.536-1.276-0.803-2.724-0.803-4.344v-19.395h2.8v19.271c0,1.181,0.191,2.252,0.576,3.212
		c0.384,0.961,0.919,1.778,1.606,2.45c0.686,0.673,1.496,1.194,2.43,1.564c0.933,0.371,1.949,0.557,3.047,0.557
		c1.071,0,2.072-0.186,3.006-0.557c0.933-0.37,1.743-0.892,2.43-1.564c0.686-0.672,1.228-1.489,1.626-2.45
		c0.397-0.96,0.597-2.031,0.597-3.212v-19.271h2.8v19.395c0,1.62-0.268,3.067-0.803,4.344s-1.276,2.354-2.224,3.232
		c-0.947,0.879-2.059,1.559-3.335,2.038C47.227,210.163,45.86,210.403,44.406,210.403z"/>
	<path fill="#E89EA7" d="M68.824,195.168l-1.235,1.606c-0.22-0.302-0.652-0.583-1.297-0.845c-0.646-0.261-1.297-0.391-1.956-0.391
		c-0.274,0-0.57,0.041-0.885,0.123c-0.316,0.082-0.604,0.213-0.865,0.392c-0.261,0.179-0.48,0.411-0.659,0.699
		c-0.179,0.289-0.268,0.639-0.268,1.051c0,0.632,0.191,1.132,0.576,1.503c0.384,0.37,0.865,0.693,1.441,0.968
		s1.201,0.535,1.874,0.782c0.672,0.247,1.297,0.549,1.874,0.905c0.577,0.357,1.057,0.817,1.441,1.38
		c0.384,0.562,0.576,1.283,0.576,2.162c0,1.373-0.467,2.532-1.4,3.479c-0.934,0.946-2.265,1.42-3.994,1.42
		c-0.934,0-1.888-0.164-2.862-0.494c-0.975-0.329-1.764-0.851-2.368-1.564c0.109-0.109,0.247-0.261,0.412-0.453
		c0.165-0.191,0.315-0.37,0.453-0.535c0.137-0.165,0.253-0.309,0.35-0.433c0.096-0.123,0.158-0.185,0.185-0.185
		c0.083,0.138,0.261,0.288,0.535,0.452c0.274,0.165,0.59,0.323,0.947,0.474c0.356,0.151,0.741,0.282,1.153,0.392
		c0.412,0.11,0.81,0.165,1.194,0.165c0.33,0,0.679-0.048,1.05-0.145c0.371-0.096,0.714-0.254,1.03-0.474
		c0.315-0.22,0.569-0.494,0.762-0.823c0.191-0.33,0.288-0.728,0.288-1.194c0-0.631-0.192-1.133-0.577-1.503
		c-0.384-0.371-0.864-0.693-1.441-0.968s-1.208-0.528-1.894-0.762c-0.687-0.233-1.318-0.528-1.895-0.886
		c-0.576-0.356-1.057-0.823-1.441-1.399c-0.385-0.577-0.577-1.318-0.577-2.224c0-0.823,0.151-1.517,0.453-2.08
		c0.302-0.562,0.686-1.029,1.153-1.399c0.466-0.371,0.995-0.639,1.585-0.803c0.59-0.165,1.159-0.247,1.709-0.247
		c0.713,0,1.496,0.15,2.347,0.452C67.451,194.07,68.192,194.537,68.824,195.168z"/>
	<path fill="#E89EA7" d="M84.965,193.191l1.359,1.4c-1.043,0.961-2.038,1.901-2.985,2.82c-0.947,0.92-1.942,1.86-2.985,2.82
		l7.165,9.842h-2.635l-6.136-8.317l-2.676,2.47v5.848h-2.265v-31.542h2.265v22.978c1.537-1.428,3.02-2.807,4.447-4.139
		C81.945,196.04,83.427,194.646,84.965,193.191z"/>
	<path fill="#E89EA7" d="M88.877,201.839c0-1.18,0.227-2.299,0.679-3.356c0.453-1.056,1.071-1.977,1.853-2.759
		c0.783-0.782,1.702-1.399,2.759-1.853s2.189-0.68,3.397-0.68c1.208,0,2.34,0.227,3.397,0.68c1.057,0.453,1.969,1.07,2.738,1.853
		c0.768,0.782,1.373,1.703,1.812,2.759c0.438,1.058,0.659,2.177,0.659,3.356c0,1.181-0.22,2.292-0.659,3.335
		c-0.439,1.044-1.05,1.95-1.833,2.718c-0.782,0.77-1.695,1.38-2.738,1.833c-1.043,0.452-2.183,0.679-3.418,0.679
		c-1.208,0-2.333-0.213-3.376-0.638c-1.043-0.426-1.956-1.022-2.738-1.791c-0.782-0.769-1.4-1.675-1.853-2.718
		C89.104,204.214,88.877,203.074,88.877,201.839z M91.142,201.839c0,0.879,0.165,1.702,0.494,2.471s0.782,1.441,1.359,2.018
		s1.249,1.029,2.018,1.358c0.769,0.33,1.592,0.494,2.471,0.494c0.878,0,1.709-0.164,2.491-0.494
		c0.782-0.329,1.462-0.782,2.039-1.358c0.576-0.576,1.029-1.249,1.358-2.018c0.33-0.769,0.494-1.592,0.494-2.471
		c0-0.878-0.165-1.709-0.494-2.491c-0.329-0.782-0.782-1.462-1.358-2.038c-0.577-0.577-1.256-1.029-2.039-1.359
		c-0.782-0.329-1.613-0.494-2.491-0.494c-0.879,0-1.702,0.165-2.471,0.494c-0.769,0.33-1.441,0.782-2.018,1.359
		c-0.577,0.576-1.029,1.256-1.359,2.038S91.142,200.961,91.142,201.839z"/>
	<path fill="#E89EA7" d="M119.142,196.074c-0.823,0-1.613,0.13-2.368,0.391c-0.755,0.262-1.42,0.625-1.997,1.092
		c-0.576,0.467-1.036,1.036-1.379,1.709s-0.515,1.42-0.515,2.244v8.564h-2.265v-16.471h1.935l0.206,4.241
		c0.33-0.714,0.755-1.352,1.276-1.915c0.521-0.562,1.091-1.043,1.709-1.441c0.618-0.397,1.262-0.706,1.936-0.926
		c0.672-0.22,1.311-0.33,1.915-0.33L119.142,196.074z"/>
	<path fill="#E89EA7" d="M120.912,201.839c0-1.18,0.227-2.299,0.679-3.356c0.453-1.056,1.071-1.977,1.853-2.759
		c0.783-0.782,1.702-1.399,2.759-1.853s2.189-0.68,3.397-0.68c1.208,0,2.34,0.227,3.396,0.68s1.971,1.07,2.738,1.853
		c0.77,0.782,1.373,1.703,1.812,2.759c0.439,1.058,0.658,2.177,0.658,3.356c0,1.181-0.219,2.292-0.658,3.335
		c-0.439,1.044-1.051,1.95-1.832,2.718c-0.783,0.77-1.695,1.38-2.738,1.833c-1.044,0.452-2.183,0.679-3.418,0.679
		c-1.208,0-2.333-0.213-3.376-0.638c-1.043-0.426-1.956-1.022-2.738-1.791c-0.782-0.769-1.4-1.675-1.853-2.718
		C121.139,204.214,120.912,203.074,120.912,201.839z M123.177,201.839c0,0.879,0.165,1.702,0.494,2.471s0.782,1.441,1.359,2.018
		s1.249,1.029,2.018,1.358c0.769,0.33,1.592,0.494,2.471,0.494c0.878,0,1.709-0.164,2.491-0.494
		c0.783-0.329,1.463-0.782,2.039-1.358s1.029-1.249,1.359-2.018c0.328-0.769,0.494-1.592,0.494-2.471
		c0-0.878-0.166-1.709-0.494-2.491c-0.33-0.782-0.783-1.462-1.359-2.038c-0.576-0.577-1.256-1.029-2.039-1.359
		c-0.782-0.329-1.612-0.494-2.491-0.494c-0.879,0-1.702,0.165-2.471,0.494c-0.769,0.33-1.441,0.782-2.018,1.359
		c-0.577,0.576-1.029,1.256-1.359,2.038S123.177,200.961,123.177,201.839z"/>
	<path fill="#E89EA7" d="M152.577,197.516c0-0.467,0.171-0.865,0.515-1.194c0.343-0.33,0.733-0.494,1.173-0.494
		c0.412,0,0.789,0.164,1.133,0.494c0.343,0.329,0.515,0.728,0.515,1.194c0,0.494-0.172,0.899-0.515,1.214
		c-0.344,0.316-0.721,0.474-1.133,0.474c-0.439,0-0.83-0.157-1.173-0.474C152.748,198.415,152.577,198.01,152.577,197.516z
		 M152.577,208.386c0-0.466,0.171-0.864,0.515-1.194c0.343-0.329,0.733-0.494,1.173-0.494c0.412,0,0.789,0.165,1.133,0.494
		c0.343,0.33,0.515,0.729,0.515,1.194c0,0.494-0.172,0.899-0.515,1.215c-0.344,0.316-0.721,0.474-1.133,0.474
		c-0.439,0-0.83-0.157-1.173-0.474C152.748,209.285,152.577,208.88,152.577,208.386z"/>
	<path fill="#E89EA7" d="M161.183,202.745v-2.348h7.658v2.348H161.183z"/>
	<path fill="#E89EA7" d="M181.112,198.051c0,2.086-0.192,4.069-0.577,5.95c-0.385,1.88-0.892,3.623-1.523,5.229
		c-0.632,1.605-1.358,3.061-2.182,4.364c-0.824,1.304-1.675,2.423-2.554,3.356c-0.329-0.165-0.658-0.323-0.988-0.474
		c-0.329-0.151-0.658-0.296-0.988-0.433c0.796-0.906,1.578-1.983,2.348-3.232c0.768-1.249,1.447-2.636,2.038-4.159
		c0.59-1.523,1.07-3.163,1.441-4.92c0.37-1.757,0.556-3.624,0.556-5.601s-0.186-3.85-0.556-5.621
		c-0.371-1.771-0.852-3.417-1.441-4.94c-0.591-1.524-1.271-2.91-2.038-4.159c-0.77-1.249-1.552-2.327-2.348-3.232
		c0.33-0.165,0.659-0.329,0.988-0.494c0.33-0.165,0.659-0.343,0.988-0.535c0.879,0.934,1.729,2.052,2.554,3.355
		c0.823,1.305,1.55,2.767,2.182,4.386c0.632,1.62,1.139,3.37,1.523,5.25C180.92,194.022,181.112,195.991,181.112,198.051z"/>
</g>
</svg>
